<svg id="ana_logo_2" data-name="ana logo 2" xmlns="http://www.w3.org/2000/svg" width="51.411" height="51.26" viewBox="0 0 51.411 51.26">
  <path id="Path_22" data-name="Path 22" d="M0,51.183,25.82,0V11.391L7.1,51.183Z" fill="#101c28"/>
  <path id="Path_23" data-name="Path 23" d="M225.926,0l25.591,51.212h-7.091l-18.6-39.584" transform="translate(-200.106)" fill="#101c28"/>
  <path id="Path_24" data-name="Path 24" d="M76.83,342.01l31.369.153-3.052-6.493-25.45.018" transform="translate(-68.078 -297.434)" fill="#101c28"/>
  <path id="Path_25" data-name="Path 25" d="M321.38,284" transform="translate(-287.354 -254.283)" fill="#1f9bd7"/>
  <path id="Path_26" data-name="Path 26" d="M267.25,284" transform="translate(-239.39 -254.283)" fill="#1f9bd7"/>
  <path id="Path_21" data-name="Path 21" d="M71.79,156.434l2.624-5.7,22.156.028-3.72-8.212-14.581-.038L89.3,118.71l7.68,16.546h-5.43L89.7,131.069l-2.554,5.325,10.21-.038,9.448,20.09" transform="translate(-63.612 -105.188)" fill="#1c3664"/>
</svg>
