<svg xmlns="http://www.w3.org/2000/svg" width="30" height="30" viewBox="0 0 30 30">
  <g id="Group_17" data-name="Group 17" transform="translate(-1574.058 -1027)">
    <g id="iconfinder_html5_334656" transform="translate(1577.058 982)">
      <g id="g4934" transform="translate(-3 45)">
        <path id="path4232" d="M866.206,605.46v30h30v-30Z" transform="translate(-866.206 -605.46)" fill="#1c3664"/>
        <path id="circle-of-friends" d="M927.409,665.277a3,3,0,0,0,3.544-.748,1.83,1.83,0,0,0-.949-2.794,3,3,0,0,0-3.544.749A1.83,1.83,0,0,0,927.409,665.277ZM922.1,678.5a9.281,9.281,0,0,1-3.193-.556l-1.8,2.547a13.754,13.754,0,0,0,5,.92,14.116,14.116,0,0,0,3.011-.323,2.964,2.964,0,0,1,1.775-2.028,4.512,4.512,0,0,1,3.111-.2,8.2,8.2,0,0,0,3.349-5.765l-3.7-.042c-.34,3.053-3.589,5.446-7.548,5.446Zm0-11.952c3.96,0,7.208,2.394,7.548,5.446l3.7-.043A8.2,8.2,0,0,0,930,666.192a4.511,4.511,0,0,1-3.111-.2,2.963,2.963,0,0,1-1.775-2.028,14.129,14.129,0,0,0-3.011-.323,13.75,13.75,0,0,0-5,.92l1.8,2.547a9.28,9.28,0,0,1,3.193-.556Zm-7.58,5.976a5.725,5.725,0,0,1,3.223-4.889l-1.9-2.505a9.3,9.3,0,0,0-4.661,5.166,2.519,2.519,0,0,1,0,4.456,9.3,9.3,0,0,0,4.662,5.166l1.9-2.505A5.725,5.725,0,0,1,914.519,672.529Zm12.891,7.252a1.83,1.83,0,0,0-.95,2.793,3,3,0,0,0,3.544.749,1.83,1.83,0,0,0,.949-2.794A3,3,0,0,0,927.409,679.781Zm-18.527-9.3a2.1,2.1,0,1,0,2.594,2.046,2.369,2.369,0,0,0-2.594-2.046" transform="translate(-903.474 -657.529)" fill="#1c3664"/>
      </g>
    </g>
    <g id="css-3" transform="translate(1547 1031)">
      <g id="Group_16" data-name="Group 16" transform="translate(32)">
        <path id="Path_100" data-name="Path 100" d="M32,0l1.783,20.139,8.007,2.238,8-2.236L51.58,0ZM47.767,6.586l-.225,2.53L46.864,16.7,41.79,18.1h0l-5.07-1.4-.355-3.966h2.484l.185,2.059,2.757.744,0,0,2.759-.744.376-3.428-8.682.024L36,9.04l9.137-.106.185-2.51-9.566.027-.161-2.333h12.4Z" transform="translate(-32)" fill="#fff"/>
      </g>
    </g>
  </g>
</svg>
