<svg xmlns="http://www.w3.org/2000/svg" width="51.507" height="51.942" viewBox="0 0 51.507 51.942">
  <g id="github-logo-silhouette-in-a-square" transform="translate(-2.381)">
    <g id="Group_6" data-name="Group 6" transform="translate(2.381)">
      <path id="Path_28" data-name="Path 28" d="M52.547,0H3.722A1.341,1.341,0,0,0,2.381,1.341V50.6a1.341,1.341,0,0,0,1.341,1.341H19.953V51.93a1.2,1.2,0,0,0,1.32-1.112c.067-1.8.02-3.611.02-5.355a37.17,37.17,0,0,1-3.789.155,6.2,6.2,0,0,1-5.9-3.983A7.606,7.606,0,0,0,8.488,37.8a3.154,3.154,0,0,1-.743-.668c-.282-.328-.229-.666.216-.756a3.711,3.711,0,0,1,1.382-.072,5.8,5.8,0,0,1,3.86,2.866,5.844,5.844,0,0,0,7.77,2.422.763.763,0,0,0,.432-.416,6.73,6.73,0,0,1,1.685-3.443c-1.063-.2-2.048-.342-3.014-.566a12.1,12.1,0,0,1-7.107-4.1,12.693,12.693,0,0,1-2.486-6.409c-.491-3.66-.051-7.087,2.462-10.012a.787.787,0,0,0,.139-.635,10.232,10.232,0,0,1,.091-6.131c.327-1.068.419-1.122,1.509-.973.067.009.131.026.2.037A16.6,16.6,0,0,1,20.8,11.5a1.324,1.324,0,0,0,.9.181,27.729,27.729,0,0,1,13.268,0,1.334,1.334,0,0,0,.846-.155c1.007-.527,1.972-1.139,2.992-1.638A8.277,8.277,0,0,1,42.59,8.9a.9.9,0,0,1,.679.438,10.155,10.155,0,0,1,.335,6.565,1.217,1.217,0,0,0,.162.813A22.183,22.183,0,0,1,45.7,20.205a14.676,14.676,0,0,1-.891,11.07c-1.532,3.255-4.374,4.9-7.738,5.755-1.136.287-2.3.462-3.526.7,1.606,1.678,1.858,3.725,1.829,5.87-.03,2.212-.022,4.425-.023,6.638,0,1.072.467,1.664,1.284,1.7,0,0,17.257,0,17.257,0V1.341A1.341,1.341,0,0,0,52.547,0Z" transform="translate(-2.381)" fill="#1c3664"/>
    </g>
  </g>
</svg>
