<svg xmlns="http://www.w3.org/2000/svg" width="30" height="30" viewBox="0 0 30 30">
  <g id="iconfinder_11_Illustrator_Adobe_Ai_logo_logos_4373824" transform="translate(0)">
    <g id="Group_14" data-name="Group 14">
      <path id="Path_96" data-name="Path 96" d="M0,0V30H30V0ZM17.972,21.387H15.8c-.1,0-.136-.07-.174-.161l-1.243-4H9.931L8.746,21.181c-.019.136-.078.206-.194.206H6.571c-.136,0-.175-.07-.136-.228,1.049-3.455,2.816-9.214,4.059-13.12a5.079,5.079,0,0,0,.155-1.233.113.113,0,0,1,.117-.126h2.68c.1,0,.116.011.155.1,1.437,4.629,3.01,9.731,4.486,14.4C18.127,21.322,18.088,21.387,17.972,21.387ZM22.5,21.2c0,.113-.039.19-.153.19H20.362c-.115,0-.148-.054-.148-.212V10.584c0-.136.014-.213.109-.213h2.023c.114,0,.153.055.153.213ZM21.336,8.913a1.262,1.262,0,0,1-1.279-1.4,1.3,1.3,0,0,1,1.3-1.4,1.249,1.249,0,0,1,1.26,1.4A1.262,1.262,0,0,1,21.336,8.913Z" fill="#1c3664"/>
      <path id="Path_97" data-name="Path 97" d="M180.112,152c-.349,1.755-1.3,4.844-2,7.371h4.1c-.465-1.825-1.606-5.476-2.071-7.371Z" transform="translate(-167.941 -143.549)" fill="#1c3664"/>
    </g>
  </g>
</svg>
