<svg xmlns="http://www.w3.org/2000/svg" width="30" height="30" viewBox="0 0 30 30">
  <path id="icons8-adobe-photoshop" d="M3,3V33H33V3Zm6.484,8.333h4.5a4.242,4.242,0,0,1,4.339,4.343,4.924,4.924,0,0,1-.54,2.3,3.9,3.9,0,0,1-3.646,1.884H12.274v4.652H9.484Zm2.79,2.171v4.186h1.862c1.24,0,1.549-.93,1.549-2.015S15.223,13.5,14.136,13.5Zm11.009,1.084c2.325,0,3.565,1.4,3.565,3.1H24.214c0-.775-.311-1.24-.931-1.24a.9.9,0,0,0-.931.931c0,1.55,4.5,1.084,4.5,4.5,0,2.325-2.328,2.79-3.568,2.79a3.4,3.4,0,0,1-3.721-3.255h2.481a1.237,1.237,0,0,0,1.24,1.4c.62,0,1.084-.311,1.084-.931,0-1.395-4.5-1.241-4.5-4.342C19.869,15.21,22.042,14.589,23.283,14.589Z" transform="translate(-3 -3)" fill="#1c3664"/>
</svg>
