<svg xmlns="http://www.w3.org/2000/svg" width="30" height="30" viewBox="0 0 30 30">
  <g id="iconfinder_3_Xd_Adobe_logo_logos_4373817" transform="translate(0)">
    <g id="Group_15" data-name="Group 15">
      <path id="Path_98" data-name="Path 98" d="M323.036,230.769c0,4.016,2.547,4.379,3.372,4.379a3.36,3.36,0,0,0,1.188-.154v-8.367a1.562,1.562,0,0,0-.936-.2C325.961,226.432,323.036,226.754,323.036,230.769Z" transform="translate(-304.653 -214.006)" fill="#1c3664"/>
      <path id="Path_99" data-name="Path 99" d="M0,0V30H30V0ZM12.994,22.5,10.16,16.635,7.358,22.5H4.748l3.871-7.648L4.882,7.383H7.523l2.789,5.756,2.752-5.756h2.564l-3.8,7.379,3.99,7.738Zm12.26-.758a6.684,6.684,0,0,1-3.754.882c-3.465,0-5.092-2.428-5.092-5.639a5.423,5.423,0,0,1,5.569-5.794h.758V7.383h2.52V21.742Z" fill="#1c3664"/>
    </g>
  </g>
</svg>
