<svg xmlns="http://www.w3.org/2000/svg" width="51.502" height="51.942" viewBox="0 0 51.502 51.942">
  <g id="linked-in-logo-key" transform="translate(-2.448)">
    <g id="Group_5" data-name="Group 5" transform="translate(2.448)">
      <path id="Path_27" data-name="Path 27" d="M45.66,30.693a13.9,13.9,0,0,0-.659-4.5,8.966,8.966,0,0,0-1.812-3.185,7.1,7.1,0,0,0-2.718-1.867,9.455,9.455,0,0,0-3.432-.6,8.374,8.374,0,0,0-2.581.357,6.78,6.78,0,0,0-1.894.933,7.342,7.342,0,0,0-1.345,1.235q-.549.659-.933,1.208V21.084H22.819q.055.933.055,3.624v6.809l-.055,12.134h7.467V31.022a8.221,8.221,0,0,1,.055-.961,3.052,3.052,0,0,1,.22-.851,6.029,6.029,0,0,1,1.345-1.867,3.439,3.439,0,0,1,2.5-.878,3.169,3.169,0,0,1,2.91,1.4,6.9,6.9,0,0,1,.879,3.706v12.08H45.66V30.693ZM14.912,18.009a4.229,4.229,0,0,0,3.13-1.153,3.563,3.563,0,0,0,1.1-2.745,3.768,3.768,0,0,0-1.126-2.773,4.118,4.118,0,0,0-3.047-1.126,4.213,4.213,0,0,0-3.075,1.126,3.723,3.723,0,0,0-1.153,2.773,3.844,3.844,0,0,0,1.1,2.745,3.972,3.972,0,0,0,3.02,1.153Zm3.734,3.075H11.178V43.651h7.467ZM52.633,0a1.322,1.322,0,0,1,.933.357,1.183,1.183,0,0,1,.384.906V50.679a1.184,1.184,0,0,1-.384.906,1.322,1.322,0,0,1-.933.357H3.766a1.321,1.321,0,0,1-.933-.357,1.183,1.183,0,0,1-.384-.906V1.263A1.183,1.183,0,0,1,2.832.357,1.322,1.322,0,0,1,3.766,0Z" transform="translate(-2.448)" fill="#1c3664"/>
    </g>
  </g>
</svg>
