<?xml version="1.0" encoding="utf-8"?>
<!-- Generator: Adobe Illustrator 16.2.0, SVG Export Plug-In . SVG Version: 6.00 Build 0)  -->
<!DOCTYPE svg PUBLIC "-//W3C//DTD SVG 1.1//EN" "http://www.w3.org/Graphics/SVG/1.1/DTD/svg11.dtd">
<svg version="1.1" id="Layer_1" xmlns="http://www.w3.org/2000/svg" xmlns:xlink="http://www.w3.org/1999/xlink" x="0px" y="0px"
	 width="50px" height="50px" viewBox="0 0 50 50" enable-background="new 0 0 50 50" xml:space="preserve">
<path fill="#31ACA1" d="M9,4C6.25,4,4,6.25,4,9v32c0,2.75,2.25,5,5,5h16.832c0.107,0.018,0.219,0.018,0.326,0h5.674
	c0.107,0.018,0.219,0.018,0.326,0H41c2.75,0,5-2.25,5-5V9c0-2.75-2.25-5-5-5H9z M9,6h32c1.668,0,3,1.332,3,3v32c0,1.668-1.332,3-3,3
	h-8V30h3.82l1.4-7H33v-2c0-0.558,0.053-0.601,0.24-0.723S34.006,20,35,20h3v-5.631l-0.57-0.271c0,0-2.297-1.098-5.43-1.098
	c-2.25,0-4.099,0.896-5.281,2.375S25,18.833,25,21v2h-3v7h3v14H9c-1.668,0-3-1.332-3-3V9C6,7.332,7.332,6,9,6z M32,15
	c2.079,0,3.387,0.458,4,0.701V18h-1c-1.15,0-2.073,0.095-2.85,0.6S31,20.062,31,21v4h4.779l-0.6,3H31v16h-4V28h-3v-3h3v-4
	c0-1.833,0.464-3.354,1.281-4.375S30.25,15,32,15z"/>
</svg>
